<svg xmlns="http://www.w3.org/2000/svg" viewBox="0 0 1000 1000" fill="none">
  <rect width="1000" height="1000" rx="224" fill="#151517"/>
  <path d="M 275.0 500.0 L 275.1 493.3 L 275.4 486.7 L 275.9 480.0 L 276.6 473.4 L 277.5 466.7 L 278.5 460.2 L 279.8 453.6 L 281.3 447.1 L 282.9 440.6 L 284.8 434.2 L 286.8 427.8 L 289.0 421.5 L 291.4 415.3 L 294.0 409.2 L 296.8 403.1 L 299.7 397.1 L 302.9 391.2 L 306.1 385.4 L 309.6 379.6 L 313.2 374.0 L 317.0 368.5 L 321.0 363.1 L 325.1 357.8 L 329.3 352.7 L 333.7 347.6 L 338.3 342.7 L 343.0 337.9 L 347.8 333.3 L 352.8 328.8 L 357.9 324.5 L 363.1 320.3 L 368.4 316.2 L 373.9 312.3 L 379.4 308.6 L 385.1 305.0 L 390.9 301.6 L 396.8 298.3 L 402.8 295.2 L 408.8 292.3 L 415.0 289.6 L 421.2 287.1 L 427.5 284.7 L 433.9 282.5 L 440.4 280.5 L 446.9 278.7 L 453.4 277.0 L 460.0 275.6 L 466.7 274.3 L 473.4 273.2 L 480.1 272.4 L 486.8 271.7 L 493.6 271.2 L 500.4 270.9 L 507.2 270.8 L 514.0 270.9 L 520.8 271.2 L 527.6 271.6 L 534.4 272.3 L 541.2 273.2 L 548.0 274.3 L 554.7 275.5 L 561.4 277.0 L 568.1 278.6 L 574.7 280.5 L 581.3 282.5 L 587.9 284.7 L 594.3 287.1 L 600.7 289.7 L 607.1 292.5 L 613.4 295.5 L 619.6 298.6 L 625.7 302.0 L 631.7 305.5 L 637.6 309.1 L 643.5 313.0 L 649.2 317.0 L 654.9 321.2 L 660.4 325.6 L 665.8 330.1 L 671.1 334.8 L 676.2 339.7 L 681.2 344.7 L 686.1 349.8 L 690.9 355.1 L 695.5 360.6 L 700.0 366.1 L 704.3 371.9 L 708.4 377.7 L 712.4 383.7 L 716.3 389.8 L 719.9 396.0 L 723.4 402.4 L 726.8 408.8 L 729.9 415.4 L 732.9 422.1 L 735.7 428.8 L 738.3 435.7 L 740.7 442.7 L 742.9 449.7 L 745.0 456.8 L 746.8 464.0 L 748.4 471.3 L 749.8 478.6 L 751.1 486.0 L 752.1 493.4 L 752.9 500.9 L 753.5 508.4 L 753.9 516.0 L 754.1 523.6 L 754.0 531.2 L 753.8 538.8 L 753.3 546.5 L 752.6 554.2 L 751.7 561.8 L 750.5 569.5 L 749.2 577.1 L 747.6 584.8 L 745.8 592.4 L 743.8 600.0 L 741.6 607.5 L 739.1 615.1 L 736.4 622.5 L 733.5 630.0 L 730.4 637.3 L 727.0 644.6 L 723.4 651.9 L 719.7 659.0 L 715.7 666.1 L 711.4 673.1 L 707.0 679.9 L 702.4 686.7 L 697.5 693.4 L 692.4 700.0 L 687.2 706.4 L 681.7 712.7 L 676.0 718.9 L 670.1 725.0 L 664.1 730.9 L 657.8 736.6 L 651.4 742.2 L 644.7 747.6 L 637.9 752.9 L 630.9 758.0 L 623.7 762.9 L 616.4 767.7 L 608.9 772.2 L 601.2 776.5 L 593.4 780.7 L 585.4 784.6 L 577.3 788.4 L 569.0 791.9 L 560.6 795.2 L 552.0 798.2 L 543.4 801.0 L 534.6 803.6 L 525.7 806.0 L 516.7 808.1 L 507.6 810.0 L 498.4 811.6 L 489.1 812.9 L 479.7 814.0 L 470.2 814.8 L 460.7 815.4 L 451.1 815.7 L 441.5 815.7 L 431.8 815.4 L 422.1 814.9 L 412.3 814.0 L 402.5 812.9 L 392.7 811.5 L 382.9 809.8 L 373.1 807.8 L 363.3 805.5 L 353.5 803.0 L 343.8 800.1 L 334.1 796.9 L 324.4 793.4 L 314.7 789.7 L 305.2 785.6 L 295.7 781.3 L 286.2 776.6 L 276.9 771.6 L 267.6 766.4 L 258.5 760.8 L 249.4 755.0 L 240.5 748.8 L 231.7 742.4 L 223.1 735.7 L 214.6 728.6 L 206.3 721.3 L 198.1 713.8 L 190.1 705.9 L 182.3 697.8 L 174.7 689.4 L 167.2 680.7 L 160.0 671.7 L 153.1 662.5 L 146.3 653.1 L 139.8 643.3 L 133.5 633.4 L 377.8 544.5 L 378.5 548.4 L 379.2 552.3 L 380.1 556.2 L 381.1 560.1 L 382.2 563.9 L 383.5 567.8 L 384.9 571.6 L 386.5 575.4 L 388.2 579.2 L 390.0 582.9 L 391.9 586.6 L 394.0 590.2 L 396.2 593.8 L 398.5 597.3 L 401.0 600.8 L 403.6 604.2 L 406.2 607.5 L 409.1 610.7 L 412.0 613.9 L 415.0 617.0 L 418.2 619.9 L 421.4 622.8 L 424.8 625.6 L 428.3 628.3 L 431.8 630.9 L 435.5 633.4 L 439.2 635.8 L 443.1 638.1 L 447.0 640.3 L 451.0 642.3 L 455.1 644.2 L 459.2 646.0 L 463.5 647.6 L 467.7 649.2 L 472.1 650.6 L 476.5 651.8 L 480.9 653.0 L 485.4 653.9 L 490.0 654.8 L 494.6 655.5 L 499.2 656.1 L 503.8 656.5 L 508.5 656.7 L 513.2 656.9 L 517.9 656.8 L 522.6 656.7 L 527.3 656.3 L 532.0 655.9 L 536.7 655.3 L 541.4 654.5 L 546.1 653.6 L 550.7 652.5 L 555.4 651.3 L 560.0 649.9 L 564.5 648.4 L 569.1 646.8 L 573.5 645.0 L 578.0 643.0 L 582.4 640.9 L 586.7 638.7 L 590.9 636.4 L 595.1 633.9 L 599.3 631.2 L 603.3 628.5 L 607.3 625.6 L 611.1 622.6 L 614.9 619.4 L 618.6 616.2 L 622.2 612.8 L 625.7 609.3 L 629.1 605.7 L 632.4 602.0 L 635.6 598.2 L 638.7 594.2 L 641.6 590.2 L 644.4 586.1 L 647.1 581.9 L 649.7 577.6 L 652.1 573.2 L 654.4 568.8 L 656.6 564.2 L 658.6 559.6 L 660.5 555.0 L 662.3 550.2 L 663.9 545.5 L 665.4 540.6 L 666.7 535.7 L 667.8 530.8 L 668.9 525.8 L 669.7 520.8 L 670.4 515.8 L 671.0 510.8 L 671.4 505.7 L 671.6 500.6 L 671.7 495.5 L 671.7 490.4 L 671.4 485.3 L 671.1 480.2 L 670.5 475.1 L 669.9 470.0 L 669.0 465.0 L 668.0 460.0 L 666.9 455.0 L 665.6 450.0 L 664.1 445.1 L 662.5 440.2 L 660.8 435.4 L 658.9 430.6 L 656.8 425.9 L 654.7 421.2 L 652.3 416.6 L 649.9 412.1 L 647.3 407.6 L 644.5 403.2 L 641.7 399.0 L 638.7 394.8 L 635.5 390.6 L 632.3 386.6 L 628.9 382.7 L 625.4 378.9 L 621.8 375.2 L 618.1 371.6 L 614.3 368.1 L 610.3 364.7 L 606.3 361.5 L 602.2 358.3 L 598.0 355.3 L 593.6 352.4 L 589.2 349.7 L 584.8 347.1 L 580.2 344.6 L 575.6 342.3 L 570.9 340.1 L 566.1 338.0 L 561.3 336.1 L 556.4 334.3 L 551.5 332.7 L 546.5 331.2 L 541.5 329.9 L 536.4 328.7 L 531.3 327.7 L 526.2 326.8 L 521.0 326.1 L 515.9 325.5 L 510.7 325.1 L 505.5 324.9 L 500.3 324.8 L 495.1 324.8 L 489.9 325.1 L 484.7 325.4 L 479.6 326.0 L 474.4 326.6 L 469.3 327.5 L 464.2 328.5 L 459.1 329.6 L 454.1 330.9 L 449.1 332.3 L 444.1 333.9 L 439.2 335.6 L 434.4 337.5 L 429.6 339.5 L 424.8 341.7 L 420.2 344.0 L 415.6 346.5 L 411.1 349.0 L 406.6 351.7 L 402.3 354.6 L 398.0 357.6 L 393.8 360.7 L 389.8 363.9 L 385.8 367.2 L 381.9 370.7 L 378.1 374.2 L 374.4 377.9 L 370.9 381.7 L 367.4 385.6 L 364.1 389.6 L 360.9 393.6 L 357.8 397.8 L 354.8 402.1 L 352.0 406.4 L 349.3 410.9 L 346.7 415.4 L 344.3 420.0 L 342.0 424.6 L 339.8 429.4 L 337.8 434.1 L 335.9 439.0 L 334.2 443.9 L 332.6 448.8 L 331.2 453.8 L 329.9 458.8 L 328.8 463.9 L 327.8 469.0 L 326.9 474.1 L 326.2 479.3 L 325.7 484.4 L 325.3 489.6 L 325.1 494.8 Z" fill="#2ee59d" fill-rule="nonzero"/>
</svg>